<svg width="100" viewBox="0 0 113 146" fill="none" xmlns="http://www.w3.org/2000/svg">
<path d="M110.667 47.9166L64.5833 1.83333C63.4124 0.660896 61.8237 0.00145877 60.1667 0H22.9167C16.8388 0 11.0098 2.41443 6.71213 6.71213C2.41443 11.0098 0 16.8388 0 22.9167V122.917C0 128.995 2.41443 134.823 6.71213 139.121C11.0098 143.419 16.8388 145.833 22.9167 145.833H89.5833C95.6612 145.833 101.49 143.419 105.788 139.121C110.086 134.823 112.5 128.995 112.5 122.917V52.0833C112.434 50.5133 111.78 49.0257 110.667 47.9166ZM66.6667 16.6822L95.8178 45.8333H66.6667V16.6822ZM89.5833 137.984H22.9167C20.154 137.984 14.0175 133.01 12.064 131.056C10.1104 129.103 7.84884 125.679 7.84884 122.917V22.9167C7.84884 20.154 10.1104 14.405 12.064 12.4515C14.0175 10.4979 20.154 7.84883 22.9167 7.84883H58.8178V47.4322C58.8394 49.083 59.7337 50.8189 60.9012 51.9863C62.0686 53.1538 63.4169 53.6606 65.0678 53.6822H104.651V122.917C104.651 125.679 102.39 131.428 100.436 133.382C98.4825 135.335 92.346 137.984 89.5833 137.984Z" fill="white"/>
<path d="M76.8256 72.1666C75.509 71.1605 73.8542 70.7027 72.2077 70.8891C70.5612 71.0755 69.0507 71.8916 67.9923 73.1666L56.2423 87.9166L44.4923 72.9166C43.9451 72.271 43.2761 71.7394 42.5235 71.3523C41.7709 70.9651 40.9494 70.7301 40.1059 70.6604C39.2625 70.5908 38.4135 70.6879 37.6076 70.9464C36.8017 71.2048 36.0546 71.6195 35.4089 72.1666C34.7633 72.7138 34.2317 73.3828 33.8446 74.1354C33.4575 74.888 33.2224 75.7095 33.1527 76.553C33.0831 77.3964 33.1802 78.2453 33.4387 79.0513C33.6971 79.8572 34.1118 80.6043 34.6589 81.25L47.9089 97.9166L34.6589 114.583C33.6202 115.887 33.142 117.55 33.3295 119.207C33.517 120.864 34.355 122.378 35.6589 123.417C36.9629 124.455 38.6261 124.934 40.2827 124.746C41.9393 124.559 43.4535 123.721 44.4923 122.417L56.2423 107.917L67.9923 122.917C68.5907 123.642 69.3414 124.227 70.191 124.63C71.0406 125.034 71.9685 125.245 72.9089 125.25C74.187 125.356 75.4666 125.066 76.5743 124.42C77.682 123.774 78.5641 122.802 79.1009 121.638C79.6377 120.473 79.8033 119.171 79.5752 117.909C79.347 116.647 78.7362 115.486 77.8256 114.583L64.5756 97.9166L78.159 81.25C78.6776 80.5698 79.0549 79.7927 79.2689 78.9646C79.4829 78.1364 79.5291 77.2738 79.4049 76.4275C79.2807 75.5813 78.9885 74.7683 78.5455 74.0366C78.1026 73.3049 77.5178 72.6691 76.8256 72.1666V72.1666Z" fill="#56AA76"/>
</svg>
