<svg width="100" viewBox="0 0 113 146" fill="none" xmlns="http://www.w3.org/2000/svg">
<path d="M110.667 47.9166L64.5833 1.83333C63.4124 0.660896 61.8237 0.00145877 60.1667 0H22.9167C16.8388 0 11.0098 2.41443 6.71213 6.71213C2.41443 11.0098 0 16.8388 0 22.9167V122.917C0 128.994 2.41443 134.823 6.71213 139.121C11.0098 143.419 16.8388 145.833 22.9167 145.833H89.5833C95.6612 145.833 101.49 143.419 105.788 139.121C110.086 134.823 112.5 128.994 112.5 122.917V52.0833C112.434 50.5133 111.78 49.0257 110.667 47.9166ZM66.6667 16.6822L95.8178 45.8333H66.6667V16.6822ZM89.5833 137.984H22.9167C20.154 137.984 14.0175 133.01 12.064 131.056C10.1104 129.103 7.84884 125.679 7.84884 122.917V22.9167C7.84884 20.154 10.1104 14.405 12.064 12.4515C14.0175 10.4979 20.154 7.84883 22.9167 7.84883H58.8178V47.4322C58.8394 49.083 59.7337 50.8189 60.9012 51.9863C62.0686 53.1538 63.4169 53.6606 65.0678 53.6822H104.651V122.917C104.651 125.679 102.39 131.428 100.436 133.382C98.4825 135.335 92.346 137.984 89.5833 137.984Z" fill="white"/>
<path d="M68.6653 96.6666C63.5411 93.4512 59.6848 88.5645 57.7486 82.8333C59.5429 77.4717 60.0845 71.7702 59.332 66.1666C59.0917 64.7549 58.4032 63.4581 57.3684 62.4681C56.3337 61.4782 55.0077 60.8478 53.5867 60.6701C52.1658 60.4925 50.7254 60.7772 49.4788 61.4819C48.2322 62.1867 47.2457 63.2742 46.6653 64.5833C45.7166 71.32 46.4318 78.1867 48.7486 84.5833C45.5836 91.9771 42.0514 99.2083 38.1653 106.25C32.2486 109.583 24.1653 114.583 22.9153 120.333C21.9153 125 30.6653 137 45.582 111C52.2147 108.538 59.0084 106.533 65.9153 105C71.021 107.919 76.7162 109.656 82.582 110.083C83.9288 110.118 85.2559 109.754 86.3965 109.037C87.537 108.32 88.4401 107.282 88.9923 106.053C89.5444 104.824 89.721 103.459 89.4997 102.13C89.2784 100.801 88.6692 99.567 87.7486 98.5833C84.2486 94.9999 73.832 95.9999 68.6653 96.6666ZM28.832 121.667C31.1673 117.67 34.2514 114.162 37.9153 111.333C32.2486 120.333 28.832 121.917 28.832 121.75V121.667ZM53.1653 64.9166C55.332 64.9166 55.1653 74.4999 53.6653 77.0833C52.5353 73.1533 52.3639 69.0098 53.1653 64.9999V64.9166ZM45.9153 105.583C48.7387 100.432 51.1894 95.0849 53.2486 89.5833C55.4563 93.6914 58.5265 97.2733 62.2486 100.083C56.6575 101.484 51.1938 103.351 45.9153 105.667V105.583ZM85.082 104.083C85.082 104.083 83.582 105.917 73.9986 101.75C84.4153 101.083 86.1653 103.5 85.082 104.167V104.083Z" fill="#F91D0A" fill-opacity="0.7"/>
</svg>
