<svg width="100" viewBox="0 0 113 146" fill="none" xmlns="http://www.w3.org/2000/svg">
<path d="M111.159 47.9714L64.8704 1.83543C63.6942 0.661651 62.0985 0.00146043 60.4341 0H23.0185C16.9136 0 11.0588 2.41719 6.74197 6.71981C2.42516 11.0224 0 16.858 0 22.9429V123.057C0 129.142 2.42516 134.978 6.74197 139.28C11.0588 143.583 16.9136 146 23.0185 146H89.9815C96.0864 146 101.941 143.583 106.258 139.28C110.575 134.978 113 129.142 113 123.057V52.1429C112.934 50.5711 112.277 49.0817 111.159 47.9714ZM66.963 16.7012L96.2437 45.8857H66.963V16.7012ZM89.9815 138.142H23.0185C20.2436 138.142 14.0798 133.162 12.1176 131.206C10.1554 129.25 7.88372 125.823 7.88372 123.057V22.9429C7.88372 20.177 10.1554 14.4214 12.1176 12.4657C14.0798 10.51 20.2436 7.85781 23.0185 7.85781H59.0792V47.4864C59.1009 49.1392 59.9992 50.877 61.1718 52.0458C62.3445 53.2146 63.6988 53.7219 65.357 53.7435H105.116V123.057C105.116 125.823 102.845 131.578 100.882 133.534C98.9202 135.49 92.7564 138.142 89.9815 138.142Z" fill="white"/>
<path d="M39.3909 74.0004C38.6259 73.9829 38 74.6119 38 75.3806V123.602C38 124.371 38.6259 125 39.3909 125H45.0415C45.8065 125 46.4324 124.371 46.4324 123.602V106.917H57.438C67.7655 106.917 74.1636 100.12 74.1636 90.4761C74.1636 80.9541 67.8524 74.0004 57.4727 74.0004H39.3909V74.0004ZM65.5748 90.4586C65.5748 98.0413 60.9674 99.9457 53.1957 99.9457H46.4324V81.0065H56.2035C62.0801 81.0065 65.5748 84.4484 65.5748 90.4586Z" fill="#D35230"/>
</svg>
