<svg width="100" viewBox="0 0 113 146" fill="none" xmlns="http://www.w3.org/2000/svg">
<path d="M110.667 47.9166L64.5833 1.83333C63.4124 0.660896 61.8237 0.00145877 60.1667 0H22.9167C16.8388 0 11.0098 2.41443 6.71213 6.71213C2.41443 11.0098 0 16.8388 0 22.9167V122.917C0 128.995 2.41443 134.823 6.71213 139.121C11.0098 143.419 16.8388 145.833 22.9167 145.833H89.5833C95.6612 145.833 101.49 143.419 105.788 139.121C110.086 134.823 112.5 128.995 112.5 122.917V52.0833C112.434 50.5133 111.78 49.0257 110.667 47.9166ZM66.6667 16.6822L95.8178 45.8333H66.6667V16.6822ZM89.5833 137.984H22.9167C20.154 137.984 14.0175 133.01 12.064 131.056C10.1104 129.103 7.84884 125.679 7.84884 122.917V22.9167C7.84884 20.154 10.1104 14.405 12.064 12.4515C14.0175 10.4979 20.154 7.84883 22.9167 7.84883H58.8178V47.4322C58.8394 49.083 59.7337 50.8189 60.9012 51.9863C62.0686 53.1538 63.4169 53.6606 65.0678 53.6822H104.651V122.917C104.651 125.679 102.39 131.428 100.436 133.382C98.4825 135.335 92.346 137.984 89.5833 137.984Z" fill="white"/>
<path d="M34.9912 119.603L24.25 78.9857V78.2934C24.25 77.6459 24.4595 77.0158 24.8472 76.4971L25.8764 75.1204C26.4428 74.3628 27.3333 73.9167 28.2792 73.9167H33.1098C33.9071 73.9167 34.6716 74.2341 35.2345 74.7988L36.2531 75.8207C36.6632 76.2321 36.9451 76.7538 37.0644 77.3224L43.6184 108.555L50.9481 77.5069C51.1092 76.8247 51.504 76.2204 52.0642 75.799L53.7647 74.5195C54.2846 74.1283 54.9177 73.9167 55.5684 73.9167H58.3729C59.1703 73.9167 59.9348 74.2341 60.4977 74.7988L61.5449 75.8494C61.9371 76.2429 62.2123 76.7374 62.3399 77.278L69.7237 108.555L76.2777 77.3224C76.397 76.7538 76.6789 76.2321 77.089 75.8207L78.1076 74.7988C78.6705 74.2341 79.435 73.9167 80.2323 73.9167H84.0223C85.0776 73.9167 86.0553 74.4712 86.597 75.3769L87.61 77.0707C88.0197 77.7557 88.1395 78.5757 87.9429 79.3493L77.6401 119.899C77.4258 120.742 76.8556 121.451 76.0776 121.842L74.5691 122.598C74.1516 122.808 73.691 122.917 73.224 122.917H66.4239C65.8301 122.917 65.2497 122.74 64.7561 122.41L63.9601 121.878C63.3342 121.459 62.8887 120.821 62.7118 120.089L56.25 93.3477L49.7882 120.089C49.6113 120.821 49.1658 121.459 48.5399 121.878L47.7439 122.41C47.2503 122.74 46.6699 122.917 46.0761 122.917H38.9692C38.1718 122.917 37.4073 122.599 36.8444 122.035L35.7667 120.953C35.3938 120.579 35.1262 120.113 34.9912 119.603Z" fill="#096BEE"/>
</svg>
